<?xml version="1.0" standalone="no"?>
<!DOCTYPE svg PUBLIC "-//W3C//DTD SVG 20010904//EN"
 "http://www.w3.org/TR/2001/REC-SVG-20010904/DTD/svg10.dtd">
<svg version="1.0" xmlns="http://www.w3.org/2000/svg"
 width="365.000000pt" height="365.000000pt" viewBox="0 0 365.000000 365.000000"
 preserveAspectRatio="xMidYMid meet">
<metadata>
Created by potrace 1.11, written by Peter Selinger 2001-2013
</metadata>
<g transform="translate(0.000000,365.000000) scale(0.100000,-0.100000)"
fill="#000000" stroke="none">
<path d="M1645 3639 c-287 -42 -534 -165 -712 -352 -148 -156 -347 -502 -356
-618 -1 -10 -9 -20 -19 -22 -16 -5 -18 -20 -18 -161 0 -151 1 -157 21 -165
l22 -7 1 -1110 c1 -722 -2 -1114 -9 -1123 -5 -7 -10 -29 -10 -47 l-1 -35 150
3 151 3 1 33 c0 18 -3 35 -8 38 -5 3 -8 548 -8 1212 0 1192 1 1208 21 1277 59
198 222 439 379 560 94 72 232 140 325 160 11 2 31 7 45 10 83 19 226 24 333
12 89 -11 248 -69 337 -122 92 -56 192 -144 256 -224 24 -31 48 -61 53 -67 28
-34 116 -203 151 -287 l39 -96 0 -1216 c-1 -668 -4 -1215 -8 -1215 -6 0 -7
-44 -2 -72 0 -5 66 -8 146 -8 80 0 145 3 146 8 0 4 2 18 5 31 2 13 0 29 -6 35
-11 14 -14 2256 -2 2255 31 -5 32 2 30 164 -3 144 -5 162 -20 161 -12 -1 -25
22 -48 90 -139 394 -410 692 -742 816 -74 27 -183 59 -228 66 -19 3 -42 7 -50
10 -27 10 -303 12 -365 3z"/>
<path d="M1764 2626 c-34 -15 -51 -50 -50 -101 1 -16 -5 -36 -11 -43 -10 -11
-10 -19 2 -42 8 -15 19 -46 24 -69 15 -67 -4 -83 -180 -145 -44 -16 -48 -20
-69 -79 -27 -73 -35 -102 -56 -217 -9 -47 -18 -94 -20 -105 -17 -86 -26 -158
-26 -205 0 -30 1 -83 1 -118 1 -35 -1 -67 -4 -72 -3 -4 4 -10 15 -13 18 -5 19
-11 15 -66 -6 -75 10 -111 59 -135 49 -23 59 -21 40 9 -14 21 -14 24 -2 20 16
-7 28 20 28 64 0 29 -21 91 -31 91 -13 0 4 251 21 294 5 15 10 38 10 52 0 13
8 52 17 85 l17 62 13 -54 c15 -65 16 -124 3 -148 -5 -10 -11 -29 -14 -42 -3
-13 -7 -33 -9 -44 -3 -11 -8 -60 -12 -110 -4 -49 -9 -93 -11 -97 -2 -4 0 -9 4
-12 5 -3 9 -92 10 -198 2 -263 7 -381 19 -404 6 -10 14 -35 18 -54 4 -19 16
-52 26 -73 11 -20 17 -37 15 -37 -3 0 4 -25 15 -57 10 -31 19 -65 19 -75 0
-10 11 -24 25 -30 25 -11 31 -23 17 -32 -4 -2 -9 -22 -10 -42 -2 -21 -6 -41
-11 -44 -7 -4 -8 -51 -2 -126 0 -11 10 -30 22 -43 14 -15 21 -35 21 -66 0 -25
4 -47 9 -50 15 -10 93 -12 124 -4 27 7 30 12 29 46 -1 21 -9 52 -18 68 -21 39
-22 99 -1 91 20 -7 29 13 51 109 10 44 19 82 19 85 6 22 16 81 19 110 14 113
17 139 23 180 3 25 7 63 8 85 3 59 20 178 31 220 1 6 9 37 18 70 8 33 17 76
20 95 3 19 10 49 16 65 7 23 8 15 4 -39 -5 -63 -4 -68 13 -61 10 4 28 10 40
12 32 7 57 67 59 141 0 40 6 67 14 72 14 9 17 154 6 275 -4 39 -8 90 -10 115
-1 25 -8 61 -14 80 -5 19 -13 71 -17 115 -14 184 -23 203 -104 233 -34 13 -81
42 -107 66 -44 39 -47 44 -40 79 4 20 11 37 15 37 14 0 30 56 21 71 -5 7 -5
20 -1 28 19 36 -12 102 -60 127 -35 17 -84 18 -125 0z m287 -796 c1 -5 2 -13
3 -17 2 -7 13 -68 22 -118 20 -114 33 -298 20 -284 -2 2 -7 38 -10 79 -7 79
-23 153 -38 184 -12 23 -17 166 -6 166 4 0 9 -4 9 -10z m59 -444 c0 -19 -29
-84 -31 -68 -4 35 -2 59 5 70 10 16 26 15 26 -2z m-619 -119 c-10 -9 -11 -8
-5 6 3 10 9 15 12 12 3 -3 0 -11 -7 -18z m324 -154 c-2 -49 -7 -117 -10 -153
-6 -57 -8 -134 -5 -220 1 -40 -8 -132 -14 -138 -10 -10 -14 2 -19 53 -2 28
-10 69 -16 91 -6 23 -9 59 -6 80 3 22 8 73 10 114 7 115 12 137 50 248 11 30
14 6 10 -75z m-31 -538 c-4 -8 -8 -15 -10 -15 -2 0 -4 7 -4 15 0 8 4 15 10 15
5 0 7 -7 4 -15z"/>
</g>
</svg>
