<?xml version="1.0" standalone="no"?>
<!DOCTYPE svg PUBLIC "-//W3C//DTD SVG 20010904//EN"
 "http://www.w3.org/TR/2001/REC-SVG-20010904/DTD/svg10.dtd">
<svg version="1.0" xmlns="http://www.w3.org/2000/svg"
 width="548.000000pt" height="548.000000pt" viewBox="0 0 548.000000 548.000000"
 preserveAspectRatio="xMidYMid meet">
<metadata>
Created by potrace 1.11, written by Peter Selinger 2001-2013
</metadata>
<g transform="translate(0.000000,548.000000) scale(0.100000,-0.100000)"
fill="#000000" stroke="none">
<path d="M2434 4594 c-188 -46 -331 -112 -460 -209 -78 -60 -187 -171 -250
-255 -78 -104 -188 -311 -228 -431 -13 -40 -31 -76 -40 -81 -14 -8 -16 -33
-16 -168 0 -153 1 -160 20 -160 11 0 20 -3 21 -7 0 -5 1 -520 2 -1145 2 -842
-1 -1139 -9 -1142 -7 -3 -11 -19 -10 -37 l2 -33 139 -1 c77 -1 145 1 151 2 14
5 16 60 3 69 -6 3 -9 455 -9 1229 1 1041 3 1232 16 1286 21 90 122 288 199
390 79 106 187 208 275 259 77 45 233 105 327 124 91 19 298 15 383 -9 153
-41 274 -98 370 -174 153 -119 303 -340 391 -575 l21 -57 0 -1231 c0 -690 -3
-1233 -8 -1237 -5 -3 -8 -15 -8 -26 1 -11 2 -27 3 -35 1 -13 23 -15 144 -14
78 1 145 2 149 3 9 1 7 71 -2 71 -3 0 -6 515 -6 1145 0 1102 0 1145 18 1145
17 0 18 12 18 165 0 158 -1 165 -20 165 -13 0 -22 9 -26 28 -14 65 -87 225
-168 370 -68 121 -216 286 -343 380 -108 81 -294 163 -461 203 -27 7 -145 12
-273 13 -203 2 -236 0 -315 -20z"/>
<path d="M2695 3595 c-41 -11 -61 -46 -60 -102 0 -18 -3 -33 -6 -33 -15 0 -16
-41 -2 -67 8 -15 16 -36 18 -46 3 -10 7 -27 10 -38 8 -26 -37 -68 -96 -90
-147 -55 -139 -50 -164 -111 -52 -127 -106 -457 -103 -620 2 -75 7 -118 16
-127 8 -8 12 -35 10 -75 -2 -83 20 -118 91 -141 20 -6 23 -4 18 9 -16 39 -19
51 -9 37 27 -38 38 77 13 128 -25 48 -22 202 6 336 3 17 7 41 9 55 7 53 31
134 36 124 4 -5 12 -37 19 -72 12 -56 11 -68 -8 -129 -12 -38 -24 -99 -27
-138 -4 -38 -9 -91 -12 -117 -3 -27 -2 -48 3 -48 4 0 8 -105 8 -233 0 -127 4
-238 9 -245 6 -8 5 -17 -2 -24 -8 -8 -8 -17 -1 -30 6 -11 8 -30 5 -43 -3 -13
-1 -25 4 -27 6 -2 12 -14 14 -28 3 -26 7 -39 31 -100 8 -19 24 -71 36 -115 14
-52 30 -87 45 -100 17 -15 21 -24 14 -35 -5 -8 -10 -30 -10 -47 0 -18 -4 -33
-9 -33 -4 0 -8 -30 -8 -67 -1 -70 17 -123 40 -123 10 0 12 -14 9 -50 -3 -41 0
-51 15 -57 23 -9 91 -9 126 0 25 7 28 11 24 45 -3 20 -12 57 -21 81 -22 59
-21 81 3 81 22 0 28 6 35 41 3 13 12 53 21 89 8 36 17 81 21 100 3 19 7 46 10
60 3 14 7 50 10 80 2 30 7 69 9 85 3 17 7 57 11 90 3 33 7 71 10 85 3 14 7 52
10 85 3 33 8 67 11 75 3 8 7 20 8 25 56 251 74 316 59 210 -13 -94 -14 -91 36
-80 43 10 73 65 75 142 1 34 7 69 14 77 15 17 18 133 7 251 -3 39 -8 97 -11
130 -3 33 -9 76 -15 95 -6 19 -13 71 -16 115 -7 103 -9 121 -23 171 -10 37
-17 44 -64 63 -81 34 -91 40 -137 83 -37 35 -41 44 -36 71 4 17 10 33 15 37
13 8 36 54 32 65 -2 6 -4 33 -5 60 -2 54 -21 86 -68 111 -29 15 -58 15 -113
-1z m288 -842 c3 -21 7 -51 10 -68 13 -73 16 -93 22 -144 3 -30 7 -57 9 -60 2
-3 0 -15 -4 -26 -6 -17 -13 15 -23 105 0 3 -6 19 -13 36 -15 36 -27 90 -26
119 3 90 15 109 25 38z m50 -380 c2 -32 1 -62 -4 -67 -5 -6 -9 -19 -9 -30 0
-10 -3 -16 -7 -12 -11 11 -11 66 0 66 4 0 6 23 3 50 -3 28 -2 50 3 50 5 0 11
-26 14 -57z m-622 -156 c-10 -9 -11 -8 -5 6 3 10 9 15 12 12 3 -3 0 -11 -7
-18z m635 -34 c-11 -11 -19 6 -11 24 8 17 8 17 12 0 3 -10 2 -21 -1 -24z
m-310 -150 c-3 -60 -8 -119 -11 -131 -2 -13 -4 -65 -4 -115 0 -92 -1 -125 -6
-182 -1 -16 -3 -40 -3 -52 -3 -40 -18 -25 -20 20 -2 23 -9 65 -17 92 -7 28
-12 66 -9 85 2 19 6 78 8 131 3 86 18 161 46 234 18 47 22 25 16 -82z m-33
-528 c-3 -9 -8 -14 -10 -11 -3 3 -2 9 2 15 9 16 15 13 8 -4z"/>
</g>
</svg>
