<svg xmlns="http://www.w3.org/2000/svg" viewBox="0 0 468.071 468.071"><path fill="#fdf30d" d="M428.874 82.099l-64.322-64.354c-23.689-23.66-62.104-23.66-85.795 0l-42.883 42.914c-23.692 23.662-23.692 62.072 0 85.765l21.438 21.443L21.43 403.75l21.441 21.436 42.881 42.886 19.163-19.163-21.443-21.44 19.191-19.187 21.443 21.44 19.191-19.195-42.884-42.877 178.343-178.345 21.441 21.443c23.689 23.692 62.1 23.692 85.79 0l42.886-42.886c23.69-23.691 23.69-62.101.001-85.763zm-64.323 107.205c-11.845 11.82-31.063 11.848-42.918 0l-64.322-64.319c-11.812-11.85-11.812-31.097 0-42.886l42.887-42.883c11.812-11.845 31.063-11.845 42.881 0l64.35 64.326c11.821 11.817 11.821 31.036 0 42.881l-42.878 42.881z" class="active-path" data-old_color="#fdf30d" data-original="#000000"/></svg>