<svg xmlns="http://www.w3.org/2000/svg" viewBox="0 0 150.83 25.79"><defs><style>.cls-1{fill:#35302c}</style></defs><g id="Слой_2" data-name="Слой 2"><g id="Layer_1" data-name="Layer 1"><path class="cls-1" d="M92.63 6.57c-.34-1-1.86-2.72-2.75-2.87a14.24 14.24 0 0 0-1.71-.7 10.56 10.56 0 0 0-1.48-.25 16.63 16.63 0 0 0-10.58 2.9c-.14.1-.28.2-.41.31l-.41-.31a16.63 16.63 0 0 0-10.58-2.9 11 11 0 0 0-1.49.25 15.52 15.52 0 0 0-1.7.72c-.89.15-2.41 1.85-2.75 2.87a7.23 7.23 0 0 0-.45 5.88 6.27 6.27 0 0 0 3.3 3.53c1.64.73 3.23.52 3.51.09s-2-.63-3.35-1.45a5.71 5.71 0 0 1-2.88-7c.8-3.2 4.34-5 7.65-4.67a15.91 15.91 0 0 1 8.9 3.24l-.45.3-.41.38a14.79 14.79 0 0 0-4.28 11c.08 3.1 1.27 7.94 5.37 7.94S81 21 81.07 17.85a14.79 14.79 0 0 0-4.28-11l-.41-.38-.38-.33a15.94 15.94 0 0 1 8.9-3.24c3.3-.3 6.84 1.47 7.65 4.67a5.71 5.71 0 0 1-2.88 7c-1.38.82-3.69.89-3.35 1.45s1.87.64 3.51-.09a6.27 6.27 0 0 0 3.3-3.52 7.23 7.23 0 0 0-.45-5.88zm-16.1.55a15.22 15.22 0 0 1 3.84 7.7c.73 3.66.38 9.55-4.67 9.9-5-.35-5.4-6.24-4.67-9.9a15.15 15.15 0 0 1 3.84-7.7c.13-.14.27-.27.4-.4s.28-.26.43-.38c.14.12.29.25.42.38s.28.26.41.4z"/><path class="cls-1" d="M65.2 12.52a3.52 3.52 0 0 0 1.92-.88c.52-.51.63-1.61 1.34-1.91s.71.21.72.73c0 2.22-3.87 2.69-5.37 2.37a3.13 3.13 0 0 1-2.21-1.57 4 4 0 0 1-.2-2.73 4.22 4.22 0 0 1 4.1-3.24 11.92 11.92 0 0 1 5.13 1.6 19.8 19.8 0 0 1 2 1.1c.49.33.84.61 1.38.93a8.83 8.83 0 0 1 3 2.28 2.31 2.31 0 0 1 .18 2.22 1.64 1.64 0 0 1-2.87.11 1.71 1.71 0 0 1-.11-1.38 2 2 0 0 1 .35-1.15 8.12 8.12 0 0 1 2-1.86 28.47 28.47 0 0 1 7.9-3.83A5.42 5.42 0 0 1 88 5.5a4.22 4.22 0 0 1 2 2.8 5.33 5.33 0 0 1 .19.94c0 .55-.18.81-.17 1.17.07.63-1 1.72-1.62 2a6.29 6.29 0 0 1-3.77.58 4.9 4.9 0 0 1-2.83-1.31c-.86-.8-1.11-1.85-.77-2.16s1.08.81 1.84 1.4a5.23 5.23 0 0 0 4.82 1.24c2.08-.43 2.76-3 1.71-4.84-.83-2.14-3.4-2.25-5.26-1.57a39.08 39.08 0 0 0-5.66 2.79 9 9 0 0 0-3.3 2.37 2.9 2.9 0 0 0-.63 1.78 1.19 1.19 0 0 0 1 1.12 1.13 1.13 0 0 0 1.28-1.12 2.55 2.55 0 0 0-.92-2 16 16 0 0 0-3.56-2.08 29.94 29.94 0 0 0-4.72-2.4 4.52 4.52 0 0 0-4.25.28 4 4 0 0 0-1.5 3.81 2.58 2.58 0 0 0 1.47 2 3.54 3.54 0 0 0 1.85.22z"/><path class="cls-1" d="M72.9 1.76a2 2 0 0 0 .18.33c.14.17.21.06.17.1s.38.2.84.56c.2.19 1.32 1.66.74 1.32-.4-.2-1-1-1.55-1.34a7 7 0 0 0-1.36-.94 7.58 7.58 0 0 0-1.42-.52 10.24 10.24 0 0 0-1.39-.44 11.34 11.34 0 0 0-5.77.44 10 10 0 0 1-1.21.38 5.12 5.12 0 0 0-.92.22c-.64.28-1.17.74-1.78 1.07-.34.19-.71.29-1.06.46a12.11 12.11 0 0 0-1.57.82 4.57 4.57 0 0 1-.68.32 1.51 1.51 0 0 1-.52.46 12 12 0 0 0-1.37.73 17.86 17.86 0 0 1-4.44 2.36 19.55 19.55 0 0 1-3.9 1 5.14 5.14 0 0 0-.53.1c-.31 0-.47-.13-.67 0s-1.08 0-1.46-.07a15.55 15.55 0 0 1-2.11-.54c-.83-.22-2.6-1.2-2.12-2 .29-.49 1-.08 1.46.32a9.54 9.54 0 0 0 2.59 1.68c2.19.81 4.77.1 6.85-.88 1.1-.52 2.1-1.21 3.16-1.8.72-.4 1.45-.77 2.09-1.19a19.53 19.53 0 0 1 2.06-1.33c.79-.38 1.73-.77 2.51-1.14s1.34-.92 2.12-1.24a15.59 15.59 0 0 1 3-.74 10.81 10.81 0 0 1 5.41.26c.51.25 1 .47 1.5.76a4 4 0 0 0 .52.2 1.94 1.94 0 0 1 .63.28z"/><path class="cls-1" d="M43.71 5.1c-2.49-1-3.17-2.4-2.84-2.67s1.57.51 3.41 1.2a14.73 14.73 0 0 0 8.95.65 11.38 11.38 0 0 1-2.95 1.22 11.6 11.6 0 0 1-6.57-.4zm1.99 7.18c-2.87.69-4.17-.67-3.91-1 .22-.49 1.66 0 3.52-.53A39.49 39.49 0 0 0 51 8.17a8.74 8.74 0 0 1 3.11-.94 10.68 10.68 0 0 0-2.71 1.61c-1.4 1.08-3.32 2.78-5.7 3.44zm3.7 1.46c-1.57.59-2.4.26-2.4-.24s.84-.81 1.86-1.22a15.48 15.48 0 0 0 4.42-3c-.05-.13-1 3.28-3.88 4.46zm3.73.11c-.87.78-1.53.81-1.75.39s.08-1 .62-1.48c1-1 2.49-2.79 2.52-2.76a6.68 6.68 0 0 1-1.39 3.85zM48.59 2.61c-1.13-1-1.1-1.81-.71-2s1 .25 1.68.79C50.83 2.54 53.62 3 53.6 3s-2.72 1.31-5.01-.39zm30.31-.09a1.62 1.62 0 0 0-.34.06c-.2.08-.12.18-.15.13s-.29.28-.72.62c-.18.17-1.74 1.13-1.36.6a7.28 7.28 0 0 1 1.56-1.35 13 13 0 0 1 1.41-.91 7.48 7.48 0 0 1 1.31-.84 8 8 0 0 1 1.45-.49 10.83 10.83 0 0 1 6.1.23A7.06 7.06 0 0 1 89.4 1a6.73 6.73 0 0 0 .82.52c.64.28 1.34.43 2 .76.35.18.65.43 1 .64.57.36 1.13.79 1.49 1a3.25 3.25 0 0 1 .61.45 1.44 1.44 0 0 1 .62.26 11.82 11.82 0 0 0 1.29.87c1.52.7 2.94 1.59 4.42 2.33a10 10 0 0 0 3.81 1.09 3.17 3.17 0 0 0 .54 0c.29 0 .46.12.65 0a6.68 6.68 0 0 1 1.35-.26 5.41 5.41 0 0 0 1.79-.91c.66-.45 1.69-1.78 2.47-1.29.5.32-.09 1-.62 1.44a8.67 8.67 0 0 1-3.22 1.16A12.11 12.11 0 0 1 101.24 8a30.35 30.35 0 0 1-3.3-1.59c-.72-.42-1.39-.9-2.06-1.26A22.07 22.07 0 0 1 93.74 4a25.88 25.88 0 0 0-2.3-1.49c-.72-.38-1.52-.46-2.25-.79a16.09 16.09 0 0 0-2.84-1 9.35 9.35 0 0 0-5.11.45 10 10 0 0 0-1.47.62 2.58 2.58 0 0 0-.41.33 4 4 0 0 1-.46.4z"/><path class="cls-1" d="M107 3.63c2.11-.85 3-1.58 3.41-1.2s-.67 1.85-2.85 2.67a11.66 11.66 0 0 1-6.56.41 11.58 11.58 0 0 1-3-1.23 14.81 14.81 0 0 0 9-.65zm-1 7.13c2.17.54 3.26 0 3.52.53.31.36-1.45 1.67-3.91 1s-4.25-2.35-5.74-3.44a11.07 11.07 0 0 0-2.71-1.61 8.74 8.74 0 0 1 3.11.94 38.91 38.91 0 0 0 5.73 2.58zm-3.52 1.52c1.2.46 1.87.68 1.85 1.22s-1.09.77-2.44.24c-2.89-1.18-3.83-4.59-3.83-4.48a15.27 15.27 0 0 0 4.42 3.02zm-3.19.48c.63.54.84 1 .62 1.48s-1 .29-1.75-.39A6.58 6.58 0 0 1 96.77 10s1.48 1.73 2.52 2.76zm2.44-11.38c.76-.65 1.21-1 1.68-.79s.28 1.19-.71 2c-2.29 1.71-5.11.28-5 .38s2.77-.42 4.03-1.59zM34 6.32c-.79 1.68 2.9 1.47 1.23-.21-.38-.39-.94-.53-1.23.21zM30.6 6c-1 .44-.29 1.66.64 1.27s.41-1.74-.64-1.27zm-4.13.39c-.87 1.33 2 1.21 1.32-.12-.32-.59-1.03-.35-1.32.12zm-3.66-.07c-.75 1.63 2.94 1.47 1.27-.21-.38-.39-.94-.53-1.27.21zM19.45 6c-1 .44-.28 1.66.64 1.27s.41-1.74-.64-1.27zm-4.13.39c-.87 1.33 2 1.21 1.32-.12-.32-.59-1.03-.35-1.32.12zm-3.66-.07c-.75 1.63 2.95 1.47 1.28-.21-.39-.39-.94-.53-1.28.21zM8.3 6c-.99.44-.3 1.66.7 1.27S9.35 5.53 8.3 6zm-4.47.32c-.74 1.63 3 1.47 1.29-.21-.39-.39-.95-.53-1.29.21zM.48 6c-1 .44-.28 1.66.64 1.27S1.53 5.53.48 6zm148.63.32c-.74 1.63 2.95 1.47 1.28-.21-.39-.39-.94-.53-1.28.21zM145.76 6c-1 .44-.28 1.66.64 1.27s.41-1.74-.64-1.27zm-4.47.32c-.74 1.63 3 1.47 1.28-.21-.38-.39-.95-.53-1.28.21zM137.93 6c-1 .44-.28 1.66.65 1.27s.42-1.74-.65-1.27zm-4.13.39c-.86 1.33 2 1.21 1.32-.12-.31-.59-1.02-.35-1.32.12zm-3.66-.07c-.74 1.63 3 1.47 1.28-.21-.42-.39-.94-.53-1.28.21zM126.79 6c-1 .44-.28 1.66.64 1.27s.41-1.74-.64-1.27zm-4.13.39c-.87 1.33 2 1.21 1.32-.12-.32-.59-.98-.35-1.32.12zM119 6.32c-.74 1.63 3 1.47 1.29-.21-.4-.39-.96-.53-1.29.21zM115.64 6c-1 .44-.28 1.66.65 1.27s.4-1.74-.65-1.27z"/></g></g></svg>